<?xml version="1.0" encoding="utf-8"?>
<!-- Generator: Adobe Illustrator 19.1.0, SVG Export Plug-In . SVG Version: 6.00 Build 0)  -->
<svg version="1.1" id="Layer_1" xmlns="http://www.w3.org/2000/svg" xmlns:xlink="http://www.w3.org/1999/xlink" x="0px" y="0px"
	 viewBox="0 0 792 612" style="enable-background:new 0 0 792 612;" xml:space="preserve">
<style type="text/css">
	.st0{fill:#FFFFFF;}
</style>
<g>
	<path class="st0" d="M316.3,283.4c6.6-6.7,15-24.8,20.2-42.1c1.7-9.9,6.2-30.7,6-34.9c0.5-1.2-6.3-3-8.7-2.7
		c-4.1,0.5-5.2-1-4.7-5.2c0.1-1.1,1.9-7.2,5.5-7c12.2,0.7,10.5,2.1,12.6-10.1c2.8-13.2,10-29,10-29s4.7-8,10.4-8.7
		c3-0.3,20.2-0.1,19.2,17.1c-0.3,12.5-6.3,30.6-9.5,33.2c1.4,2.2,3.2,1.5,4.7,1.9c5.2,1.3,5,2.5,4.6,5.5c-0.7,8.9-7.6,7.1-7.6,7.1
		s-5.9-1.9-8.4-0.3c-2.2,1.4-10.8,27.5-12.2,38.2c-2.2,10.7-3.7,18.5-2.2,28c0.3,2,0.5,4,1.1,5.9c0.7,2.4,2.2,2.7,3.9,0.8
		c1.2-1.3,2.3-2.8,3.1-4.4c6.2-12.5,12.5-24.9,20.1-36.6c3.1-4.8,13.5-25.3,15.1-27.7c2.8-4.4,5.2-9.1,2.9-14.7
		c-0.7-1.7-1.5-17,6.6-24c2.3-2.8,8.4-1.1,11.3,2.6c3.3,4.3,2.3,9,1.1,13.5c-1.3,4.7-2.8,9.4-5.5,13.5c-1.9,2.8-1.4,5.1,0.2,7.9
		c3.3,5.8,6.6,11.7,8.6,18.1c0.9,2.9,6.9,23.4,5.7,31.6c3.1-0.5,12.8-13,16.2-17.3c1-1.3,2.2-2.1,3.7-1.7c1.6,0.4,2.2,1.9,2.5,3.3
		c0.2,0.8,0.1,1.8-0.1,2.7c-7.5,20.3-13.3,43.1-41.7,44.7c-5.1,0.3-21.6-4.8-29.4-9.2c-3.5-1.3-4.7-0.8-6.5,2.6
		c-2.9,5.2-6.2,10.1-11.1,13.8c-3.8,2.8-11,3.7-15.3,1.6c-6.4-3.2-11.7-15.7-12.2-16.3c-2.8,4.7-14.2,20.7-17.6,23.7
		c-2.8,2.4-6.4,2.5-9.8,1.8c-2.1-0.5-12.4-12-13.2-16.2c-1.8-8.4-3.4-8.9-10-3.7c-4.1,3.3-17,11-18.4,13.1
		c-5.6,8.4-13.6,12.5-23.7,13c-23.5,0.2-25-26.2-25-26.2s-6.2-51.6-7.3-61.8c-0.7-6.3-0.1-12.6-0.5-18.8c-0.2-4.3,0.5-27.9,1.3-35
		c1.2-9.8,2.5-19.8,6.6-29c4.7-10.4,11.5-18.8,23.1-21.9c6-1.6,15.9-1.1,25.9,12c15,18.8-6,59.2-6,59.2s-3.9,6.6-3.5,11.2
		c0.5,0.9,18.8-1.7,21,21.1c2.2,22.9,0.8,24.8-0.2,30.6c-0.7,4.2-4,16.9-1.2,20.6c3.7,0.5,9.9-1.5,13.9-9c0.1-0.7,6.1-36,7.8-45.2
		c0.7-4.1,1.8-17.8,2.7-20.4c1.3-4,2.5-4.9,6.6-5.2c4-0.3,12.2-0.9,14.5,5.6c-0.1,1.2-5.2,20.2-6.4,28.6
		C315.3,244.1,310.1,271.7,316.3,283.4z M250.8,225.6c-25.2,0.5-16.9,31.3-15.9,35.9c1,4.4,2.8,7.1,6.1,9.4c2.9,2.1,6.3,3.6,8.6,6.5
		c0.9,1.1,2.5,1,2.9-0.7c4.8-7.5,5.9-9.5,7.5-21.3C261.7,243.7,259.1,225.7,250.8,225.6z M246.6,143.6c-1.7,0-2,0-3.9,1.5
		c-6.7,5.4-11.3,12-12.7,20.9c-1.8,12-3.4,24,0.2,35.9c0.3,1.1,0.5,2.2,1.7,2.4c1.3,0.3,2-0.6,2.5-1.6
		C253.2,174.5,249.9,143.6,246.6,143.6z M402.3,235.7c-2.5,4.8-17.8,28.8-16.8,30.8s3.3,1.8,6,2.5c6.9,1.1,13-1.6,15.2-7.6
		C408.9,255.2,407.6,244.2,402.3,235.7z M246.9,294.3c0.2-1.6-12.9-12.7-17.9-15.7c-4,8.6,2.9,20.6,5.8,24
		C244.3,307.2,248.3,298.8,246.9,294.3z M374.1,165.6c0.4-1.5-3.9-3.4-4.8-2.3c-7.7,9.3-9.4,28.5-8.4,28.9c0.9,0.3-0.8,1.8,2.5-0.1
		S372.6,173.6,374.1,165.6z M408.6,198.9c2.1-4.2,7-12.3,5.7-16.7c0,0,0.2-3.4-2.5-0.8C409,184.2,407.4,192.1,408.6,198.9z
		 M356,274.4c0.2,2,0.5,4,1.1,5.9 M323.3,204.1c0.3,3.1-5.2,20.4-6.4,28.6"/>
	<path class="st0" d="M380.2,384c4.1,2,18,17.4,15.1,37c-1.6,9.7-5.7,18.5-13.9,23.6c-7.2,4.6-15.7,7.2-24.8,7.2
		c-7.2,0-33.9-1.4-34.4-1.5c-4.9-0.6-5.5-3.3-5.3-7.9c-0.2-19.6,1.1-48,1.1-48l1.5-23.3c0,0,1.3-20.1,4.6-35.3
		c0.8-5.3,1.1-9.7,2.1-16c0.7-3.8,26.3-7.1,42.1-3.1s24.9,14.8,31.6,25.1c5.9,8.2-0.5,29.1-3.6,31.6
		C396.4,373.4,394.9,377.5,380.2,384z M344.1,428.8c25.5-0.5,24.8-11.8,24.8-11.8s0.3-16.4-9.8-18.5c-11.6-2.4-19.4,0.5-19.5,2.9
		c-0.3,7.8-2.1,15.4-1.8,23.2C337.9,428.7,343.3,428.8,344.1,428.8z M348.6,359.6c-0.2,3.3,0.3,4.2,3.5,3.8
		c15.6,1.1,21-3.2,21.3-4.5c5.4-12.1-7.7-21-15.8-21.9c-4.2-0.5-5.3,0-6.4,4C349.8,346.2,348.6,358.7,348.6,359.6z M318.1,394.4
		c0.1-3,1.4-21.3,1.5-23.3"/>
	<path class="st0" d="M542.5,447.4c-3.3,11-15.6,19.6-26.9,17c-9.9-2.2-20.1-5.2-27.4-13.2c-3-3.3-4.3-7.8-4.3-12
		c0-13.2-0.1-26.6,6.6-38.6c3.4-6.2,7-12.6,13.4-16.7c6.6-4.3,13.6-3.9,20.4-1.9c17.3,5.8,19.1,24.2,19.4,31.2
		c0.3,7,2.5,9.3-3.5,8.1c-22.1,0.5-5.1,5.7,0.1,4.7c6.6,0.7,6.2,4.5,4.9,9.7 M545.6,435.6c3-1.3,6-0.4,9.1-0.2
		c1.2,0.1,2.8,0.3,3.5-0.9c1-1.5-0.3-2.7-1.1-3.9c-4.6-6.2-7.9-13-8.6-20.8c0.4-44.3,45.6-28.5,46,2c0.1,4.6-1.7,7.6-7.1,7.1
		c-7.8-0.7-8.8-1.3-9.4-9.2c-0.1-4-1.7-7.8-5.5-8c-3.1-0.2-4.6,0.9-5.2,4.3c-1.1,6.3-0.8,14.3,7.6,19.9
		c17.3,13.3,14.3,23.5,14.3,25.3c0,5.2-1.8,9-5.4,12.9c-5.3,5.7-11.2,6.4-18.1,5.2c-14.4-2.4-19.9-18.4-19.7-24.7 M517.9,441.2
		c2.7,0,4.9-0.9,6.9-2.7c3.1-2.7,4-6.4,5-10c1-4.2-0.1-5.8-4.2-7.4c-4.7-1.7-9.6-1.3-14.4-2.1c-7.7,0.1-7.2,10.2-5,15.1
		C508.4,439.3,512.6,441.1,517.9,441.2z M529.6,409.1c-0.1-5-3.5-10.4-7.4-11.7c-3.6-1.2-8.1,0.7-9.7,4c-1.9,4.1,3.5,8.9,12.7,10.4
		C529.5,413.3,529.7,413.4,529.6,409.1z M561,437.4c-0.2,4.1-0.4,8,2.7,11.1c1.6,1.7,3.1,1.6,4.4-0.2c1.1-1.5,1.8-3.5,0.8-5.1
		C567.2,440.6,565.5,437.5,561,437.4z"/>
	<path class="st0" d="M434.2,363.9c0.6-3.8,2.6-5.6,6.6-5.1c0.5,0.1,6.5,0.7,7.3-3.8c2.7-14.4,3.7-17.3,5.4-28.8
		c1.1-5.7,2.9-6.8,8.2-5c7.2,2.5,14.6,4.1,22.1,5.3c3.2,0.5,5.1,3.2,3.7,6.5c-2.7,6.2-7.3,22.5-7.7,24.3c-1.1,5.3-1.1,5.5,3.8,7.2
		c2.4,0.8,2.9,2.3,3,4.5c0.2,3.5-1.8,14.9-2,17.2c-0.3,3.1-3,4.6-5.9,3.6c-0.7-0.2-6.3-1.7-7.7,1.9c-1.8,4.8-5.5,25.8-6.5,31.4
		c-0.3,1.9-0.6,3.9,0.2,5.9c1.1,2.7,4.9,2.1,4.9,2.1s12.5-2.3,7.1,6.5c-1.9,7.5-4.9,14.7-5.5,22.6c-0.4,4.7-1.9,5.5-6.4,6.6
		c-7.9,1.8-21.1-4.9-21.1-4.9s-8.9-8-5.4-25.9c1-9.4,3.2-40.4,4.5-46.4c0.6-3.2-0.8-5-4-5.1C432.6,383.5,429.9,378.4,434.2,363.9z"
		/>
	<path class="st0" d="M559.5,316.7c0.9,0.9,1.8,1.8,2.5,2.8c0.4,0.6,0.5,1.4-0.1,2c-0.6,0.6-1.4,0.4-2,0.1c-0.6-0.3-1.1-0.9-1.7-1.4
		c-5.7-4.4-11.1-9.2-16.4-14.1c-3.8-3.6-7.9-6.8-12-10.1c-5.6-4.5-10.1-9.9-12.6-16.6c-1.5-4.2-2.4-8.7-2.7-13.2
		c-0.4-6.6-1-13.2-1.2-19.9c-0.1-3.6-3.2-15.2-11.9-13.8c-7.9-0.4-12.4,7.9-13.6,14c-0.9,4.4-3.1,21.7-4.9,28.1s-9.5,23.6-9.6,27.1
		c-3.1-1.4-3-3.1-2.6-5.3c1.6-6.9,4-17.8,4.4-20.7c0.5-2.8,0.4-12.6-0.5-18.9c-0.7-5.2-1.9-10.3-3.2-15.4c-0.5-1.9-5.7-14.4-7.1-19
		c-0.7-2.2,1.4-5.9,3.3-6.2c2.4-0.4,4.3-0.6,6.9,1.7c0.8,1.2,7.2,9.7,9.2,14.5c1.9-5.7,5.2-9.2,8.4-12.8c3.6-3.4,7.4-3.7,14.1-4
		c9.3,0.1,16.3,4,20.5,12.5c3.5,10.9,1.9,36.9,4.1,44.9C533.3,281.2,556.3,313.5,559.5,316.7z"/>
	<path class="st0" d="M431.1,380.7c1.8,4.1-0.7,7.7-1.5,11.4c-0.4,2.1-5.7,51.1-4.9,55.3c1,5-2,7.3-7.1,6.2
		c-6.8-1.5-13.7-2.9-20.5-4.3c-3.8-0.8-4.8-2.7-3.2-6.2c0.4-1,7.1-56.9,6.7-61.8c-0.2-3.3,3.5-4.8,7.3-2.8
		c4.7,2.5,17.4,2.3,18.6,1.9c1.7-0.6,3.2,0,4.8,0.4C431.2,380.9,431.1,380.7,431.1,380.7z"/>
	<path class="st0" d="M354.4,466.9c3,0.8,18.5-0.9,23.5-1.9c3-0.6,13.7-3,15.7-0.5c1.5,1.9,0.8,3.1-0.8,3.8
		c-1.4,0.6-3.2,0.8-4.8,0.8c-4.2,0-15.2,2.1-16.7,2.1c-23.2,2.8-51.2-3.8-51.2-3.8s-39.1-5.8-64.8-28.1
		c-5.6-3.1-21.3-18.1-25.1-20.6c-0.7-0.5-12.6-10.9-29.2-41.6c-4.1-7.1-7.3-14.5-10.1-22.1c-4.2-11.2-6.7-15.8-9.8-52.2
		c-0.7-7.5-1.1-20.1,1.8-33.6c0.8-7.8,2.7-15.3,5-22.8c1.2-3.8,2.1-7.6,3.4-11.4c0.6-1.7,1.4-3.4,4-2.2c2.3,1.2,2,2.6,1,4.5
		c-2.3,4.3-7.5,30.1-7.5,30.1s-1.8,16.9-2,19c-0.5,9,3.2,46.9,5.8,56c2.2,7.9,11.4,28.8,13,31.8c5.2,9.8,18.5,27.4,18.5,27.4
		s6.6,8,9.7,12.2c2.7,3.8,17,14.5,19.7,17.6c3.5,3.8,25,16.3,31.2,20.3c0.4,0.3,27.5,9,33.8,10.5
		C330.4,464.8,342.5,465.4,354.4,466.9z"/>
	<path class="st0" d="M499.9,198.2c-0.3,1.8-3.1,2.1-4,4.2c-0.6,1.3-16-20.1-17.6-22.1c-23.2-27.7-62.2-43-62.2-43
		s-45.8-16.5-74.9-11.8c-7.3,0.8-14.7,1.8-22,3.1c-8.6,1.5-17,3.6-25.3,6c-1.2,0.3-2.2,0.3-2.8-0.8c-0.8-1.4,0.4-1.9,1.3-2.5
		c1.1-0.7,2.2-1.1,3.5-1.5c11.9-3.4,23.8-6.4,36-8c8.4-1.1,25.4-3.4,55,2.6c7.9,1.2,15.3,4.2,23.1,5.9c10.4,2.3,32.6,15.3,34.8,16.1
		c5.6,1.8,27,19.9,32,24.6c3.6,3.3,7.1,6.7,10.1,10.6c3.6,4.6,7.7,9,11.7,13.3C499.2,195.9,499.9,196.6,499.9,198.2z"/>
	<path class="st0" d="M404.5,356.4c-0.2-5.3,1.3-9.9,5.3-13.6c3.5-3.3,10.7-3.4,14.3-0.2c10.1,6.5,10.8,19,2.8,26.1
		c-7.3,4.9-14.2,4.1-19.1-0.8C405.7,365.8,404.3,360.8,404.5,356.4z"/>
	<path class="st0" d="M308.7,180.3c0.1-7.1,4.4-11.6,11-11.6c7.1,0,11.2,3.5,10.8,9.3c-0.3,6.3-7.1,13.5-12.5,13
		C313.5,190.7,308,185.9,308.7,180.3z"/>
	<path class="st0" d="M525.6,313.6c5.1,1.5,5.2,1.5,4.2,6c-2,8.6-13.2,46.9-15.4,47.3c-2,0.3-4.3,0-5.4-1.6
		c-1.2-1.8-1.2-4.3,0.2-6.2C512.7,354.7,524.5,316.3,525.6,313.6z"/>
	<path class="st0" d="M474.7,218c3.9,4.3,7.9,10.5,9.2,14.5"/>
</g>
</svg>
