<?xml version="1.0" encoding="utf-8"?>
<!-- Generator: Adobe Illustrator 19.1.0, SVG Export Plug-In . SVG Version: 6.00 Build 0)  -->
<svg version="1.1" id="Layer_1" xmlns="http://www.w3.org/2000/svg" xmlns:xlink="http://www.w3.org/1999/xlink" x="0px" y="0px"
	 viewBox="0 0 792 612" style="enable-background:new 0 0 792 612;" xml:space="preserve">
<style type="text/css">
	.st0{fill:#FFFFFF;}
</style>
<g>
	<path class="st0" d="M273.2,282.7c11-11.1,24.9-41,33.4-69.7c2.8-16.3,10.3-50.8,9.9-57.8c0.8-2-10.4-5-14.4-4.5
		c-6.7,0.8-8.6-1.7-7.7-8.5c0.2-1.8,3.1-11.9,9.1-11.6c20.2,1.1,17.4,3.5,20.8-16.7c4.6-21.8,16.6-48,16.6-48s7.9-13.3,17.3-14.4
		c5-0.6,33.5-0.2,31.8,28.3c-0.5,20.7-10.4,50.7-15.8,55c2.3,3.7,5.4,2.5,7.8,3.1c8.6,2.2,8.3,4.1,7.6,9.2
		c-1.1,14.7-12.5,11.7-12.5,11.7s-9.8-3.1-13.9-0.5c-3.7,2.4-17.8,45.6-20.2,63.3c-3.6,17.6-6.2,30.6-3.7,46.4
		c0.5,3.3,0.8,6.6,1.8,9.7c1.2,4,3.6,4.5,6.5,1.3c2-2.2,3.8-4.7,5.1-7.3c10.2-20.7,20.7-41.2,33.3-60.7c5.1-8,22.3-41.9,24.9-46
		c4.7-7.4,8.7-15.1,4.9-24.4c-1.2-2.8-2.5-28.2,10.9-39.7c3.8-4.7,13.9-1.9,18.7,4.4c5.4,7.1,3.8,14.8,1.8,22.3
		c-2.1,7.8-4.7,15.6-9.1,22.4c-3.1,4.7-2.2,8.5,0.4,13.1c5.5,9.6,10.9,19.3,14.3,29.9c1.5,4.9,11.4,38.8,9.4,52.3
		c5.1-0.8,21.2-21.4,26.9-28.7c1.7-2.1,3.6-3.5,6.1-2.9c2.6,0.6,3.6,3.2,4.2,5.5c0.4,1.4,0.2,3-0.1,4.5c-12.4,33.6-22.1,71.4-69,74
		c-8.4,0.5-35.8-7.9-48.7-15.2c-5.9-2.2-7.8-1.3-10.8,4.2c-4.8,8.7-10.2,16.7-18.4,22.8c-6.3,4.7-18.3,6.1-25.4,2.6
		c-10.6-5.2-19.3-26-20.2-27c-4.7,7.8-23.5,34.3-29.2,39.2c-4.6,4-10.5,4.2-16.3,3c-3.5-0.8-20.5-19.9-21.9-26.8
		c-2.9-13.9-5.7-14.8-16.5-6.1c-6.8,5.5-28.1,18.2-30.4,21.6c-9.2,14-22.5,20.7-39.2,21.5c-38.9,0.3-41.4-43.4-41.4-43.4
		s-10.2-85.4-12.1-102.3c-1.1-10.5-0.2-20.8-0.8-31.1c-0.4-7.1,0.8-46.2,2.2-57.9c2-16.2,4.1-32.8,10.9-48
		c7.8-17.2,19-31.2,38.2-36.3c9.9-2.6,26.3-1.8,42.9,19.8c24.8,31.1-9.9,98-9.9,98s-6.4,10.9-5.8,18.5c0.8,1.4,31.1-2.8,34.8,35
		c3.7,37.9,1.3,41-0.3,50.7c-1.1,6.9-6.6,28-1.9,34.1c6.2,0.8,16.4-2.5,23.1-15c0.2-1.2,10.2-59.6,12.9-74.9
		c1.2-6.8,3-29.5,4.4-33.8c2.2-6.6,4.2-8.1,10.9-8.6c6.7-0.5,20.1-1.5,23.9,9.3c-0.1,2.1-8.6,33.4-10.6,47.3
		C271.6,217.7,263.1,263.3,273.2,282.7z M164.8,187c-41.7,0.8-28,51.9-26.3,59.5c1.6,7.2,4.7,11.7,10,15.6
		c4.8,3.5,10.4,5.9,14.3,10.7c1.4,1.8,4.2,1.7,4.8-1.2c7.9-12.5,9.8-15.8,12.5-35.2C182.8,217,178.5,187.2,164.8,187z M157.8,51.3
		c-2.8,0-3.3,0-6.4,2.5c-11.1,9-18.8,19.9-21,34.6c-3,19.9-5.7,39.7,0.4,59.5c0.6,1.8,0.8,3.6,2.8,4c2.1,0.5,3.2-0.9,4.1-2.7
		C168.7,102.3,163.3,51.3,157.8,51.3z M415.6,203.7c-4.1,7.9-29.5,47.7-27.9,51s5.5,3.1,9.9,4.1c11.4,1.8,21.5-2.6,25.2-12.6
		C426.6,236.1,424.5,217.8,415.6,203.7z M158.3,300.8c0.4-2.7-21.3-21.1-29.7-25.9c-6.6,14.3,4.8,34.1,9.6,39.7
		C153.9,322.2,160.6,308.3,158.3,300.8z M368.9,87.6c0.7-2.5-6.4-5.7-7.9-3.7c-12.7,15.4-15.6,47.2-13.9,47.9c1.5,0.6-1.4,3,4.2-0.2
		C356.9,128.4,366.6,100.8,368.9,87.6z M426.1,142.9c3.4-7,11.6-20.3,9.5-27.7c0,0,0.3-5.7-4.2-1.2S424.1,131.5,426.1,142.9z
		 M339.1,267.9c0.3,3.3,0.8,6.6,1.8,9.7 M284.9,151.4c0.5,5.1-8.6,33.8-10.6,47.3"/>
	<path class="st0" d="M379.1,449.3c6.8,3.4,29.8,28.9,25.1,61.2c-2.7,16-9.5,30.6-23,39.2c-12,7.6-26.1,11.9-41,11.9
		c-12,0-56.2-2.3-57-2.4c-8-1.1-9.1-5.5-8.7-13.1c-0.3-32.4,1.8-79.6,1.8-79.6l2.5-38.7c0,0,2.1-33.4,7.6-58.4
		c1.4-8.8,1.8-16,3.5-26.4c1.1-6.3,43.6-11.8,69.7-5.1c26,6.7,41.2,24.4,52.3,41.5c9.7,13.6-0.8,48.2-5.9,52.4
		C406,431.8,403.3,438.6,379.1,449.3z M319.2,523.5c42.3-0.9,41.1-19.6,41.1-19.6s0.4-27.2-16.3-30.6c-19.2-4-32.2,0.8-32.3,4.8
		c-0.5,12.9-3.5,25.5-3,38.4C309,523.3,318,523.5,319.2,523.5z M326.7,409c-0.4,5.5,0.5,7,5.7,6.3c25.8,1.9,34.7-5.4,35.3-7.4
		c9-20-12.7-34.7-26.1-36.3c-6.9-0.8-8.8,0-10.5,6.6C328.7,386.7,326.8,407.5,326.7,409z M276.2,466.5c0.1-5,2.3-35.3,2.5-38.7"/>
	<path class="st0" d="M647.9,554.4c-5.4,18.2-25.8,32.4-44.6,28.2c-16.4-3.7-33.2-8.7-45.4-21.8c-5-5.4-7.2-12.9-7.1-19.9
		c0.1-21.9-0.1-44.1,10.9-64c5.7-10.3,11.6-20.8,22.1-27.7c10.9-7.1,22.4-6.5,33.7-3.1c28.6,9.6,31.7,40,32.2,51.6
		c0.5,11.6,4.1,15.5-5.8,13.4c-36.6,0.9-8.5,9.4,0.2,7.8c10.9,1.2,10.3,7.4,8.1,16 M653,534.8c5-2.1,10-0.7,15-0.4
		c2,0.1,4.6,0.4,5.9-1.5c1.6-2.4-0.5-4.4-1.9-6.4c-7.6-10.3-13.1-21.5-14.2-34.4c0.6-73.4,75.5-47.3,76.2,3.3
		c0.1,7.6-2.9,12.6-11.8,11.8c-12.9-1.2-14.6-2.2-15.6-15.2c-0.1-6.6-2.9-12.9-9.2-13.2c-5.1-0.3-7.6,1.5-8.6,7.2
		c-1.8,10.4-1.4,23.8,12.6,33c28.6,21.9,23.7,39,23.7,41.9c0,8.6-3,14.9-9,21.4c-8.7,9.5-18.6,10.7-30,8.6
		c-23.9-4-32.9-30.5-32.5-41 M607.1,544c4.4,0.1,8.1-1.5,11.4-4.4c5.1-4.4,6.7-10.5,8.2-16.6c1.7-6.9-0.1-9.7-7-12.2
		c-7.7-2.8-15.9-2.1-23.8-3.5c-12.7,0.1-12,16.9-8.3,25.1C591.4,540.8,598.4,543.9,607.1,544z M626.5,490.9
		c-0.1-8.3-5.8-17.3-12.2-19.4c-6-2-13.4,1.1-16.1,6.7c-3.2,6.7,5.8,14.7,21,17.2C626.4,497.8,626.6,498,626.5,490.9z M678.6,537.8
		c-0.3,6.8-0.6,13.2,4.5,18.4c2.7,2.7,5.2,2.7,7.3-0.3c1.8-2.5,3-5.8,1.4-8.4C688.8,543.1,685.9,537.9,678.6,537.8z"/>
	<path class="st0" d="M468.6,416c1-6.4,4.3-9.2,10.9-8.4c0.9,0.1,10.8,1.1,12.2-6.3c4.4-23.8,6.1-28.6,8.9-47.7
		c1.8-9.4,4.9-11.3,13.6-8.3c11.9,4.2,24.2,6.8,36.6,8.8c5.3,0.8,8.5,5.3,6.1,10.7c-4.5,10.3-12.2,37.3-12.7,40.3
		c-1.8,8.9-1.9,9,6.2,11.9c3.9,1.4,4.8,3.9,5,7.5c0.4,5.8-3,24.7-3.4,28.5c-0.6,5.2-4.9,7.6-9.8,5.9c-1.1-0.4-10.5-2.8-12.7,3.1
		c-2.9,8-9.1,42.8-10.7,51.9c-0.5,3.2-1,6.5,0.3,9.8c1.8,4.5,8.1,3.6,8.1,3.6s20.8-3.9,11.8,10.7c-3.2,12.4-8.1,24.4-9.2,37.4
		c-0.7,7.8-3.1,9.1-10.7,10.9c-13.1,3-35-8.1-35-8.1s-14.7-13.2-8.9-42.9c1.6-15.5,5.4-66.9,7.4-76.9c1.1-5.3-1.3-8.3-6.7-8.4
		C465.9,448.6,461.5,440.1,468.6,416z"/>
	<path class="st0" d="M675.9,337.9c1.5,1.5,3,3,4.2,4.7c0.7,0.9,0.9,2.3-0.2,3.2c-1,0.9-2.3,0.7-3.4,0.2c-1-0.5-1.8-1.5-2.8-2.2
		c-9.5-7.3-18.4-15.2-27.2-23.4c-6.3-5.9-13.1-11.3-19.8-16.7c-9.3-7.4-16.8-16.4-20.8-27.5c-2.5-6.9-3.9-14.4-4.4-21.9
		c-0.7-11-1.6-21.9-2-32.9c-0.2-6-5.3-25.1-19.7-22.8c-13.1-0.7-20.6,13-22.6,23.2c-1.4,7.3-5.2,36-8.1,46.6
		c-2.9,10.6-15.7,39.1-16,44.9c-5.1-2.4-5-5.2-4.2-8.7c2.6-11.4,6.6-29.6,7.4-34.3s0.7-20.9-0.8-31.2c-1.2-8.6-3.2-17.1-5.2-25.5
		c-0.8-3.1-9.5-23.9-11.7-31.5c-1.1-3.7,2.3-9.8,5.5-10.3c4-0.7,7.1-1.1,11.4,2.8c1.3,2,11.9,16.1,15.3,24.1
		c3.2-9.5,8.6-15.2,13.9-21.2c5.9-5.6,12.3-6.2,23.3-6.6c15.4,0.2,27.1,6.6,34,20.7c5.8,18,3.2,61.2,6.9,74.4
		C632.6,279.1,670.7,332.5,675.9,337.9z"/>
	<path class="st0" d="M463.3,443.9c2.9,6.8-1.1,12.8-2.4,19c-0.7,3.5-9.5,84.6-8.1,91.6c1.7,8.3-3.3,12.1-11.8,10.3
		c-11.3-2.4-22.6-4.8-33.9-7.2c-6.3-1.3-8-4.4-5.4-10.2c0.7-1.6,11.7-94.3,11.1-102.4c-0.4-5.5,5.8-8,12.2-4.6
		c7.9,4.2,28.8,3.8,30.7,3.1c2.8-1,5.3,0,7.9,0.7C463.6,444.2,463.3,443.9,463.3,443.9z"/>
	<path class="st0" d="M336.4,586.7c4.9,1.4,30.6-1.5,38.9-3.2c5-1,22.7-5,26-0.9c2.6,3.2,1.3,5.2-1.3,6.4c-2.4,1.1-5.3,1.3-7.9,1.3
		c-7-0.1-25.2,3.4-27.6,3.5c-38.4,4.6-84.7-6.4-84.7-6.4s-64.7-9.6-107.3-46.5c-9.3-5.1-35.2-30-41.6-34.2
		c-1.2-0.8-20.8-18-48.3-68.9c-6.8-11.7-12-24-16.8-36.6c-7-18.6-11.1-26.1-16.2-86.4c-1.1-12.5-1.7-33.3,2.9-55.6
		c1.3-12.9,4.5-25.4,8.3-37.7c1.9-6.3,3.5-12.6,5.7-18.8c1-2.7,2.4-5.7,6.6-3.6c3.8,1.9,3.2,4.4,1.6,7.4
		c-3.7,7.1-12.5,49.8-12.5,49.8s-3,28-3.2,31.4c-0.8,14.9,5.3,77.7,9.6,92.8c3.7,13,19,47.7,21.6,52.7c8.6,16.2,30.6,45.4,30.6,45.4
		s11,13.2,16,20.2c4.5,6.3,28.1,24,32.7,29.1c5.7,6.4,41.3,27,51.6,33.5c0.7,0.5,45.5,14.9,56,17.3
		C296.7,583.2,316.7,584.2,336.4,586.7z"/>
	<path class="st0" d="M577.3,141.7c-0.6,3.1-5.1,3.5-6.7,7c-1,2.1-26.4-33.3-29.2-36.5c-38.4-45.9-103-71.1-103-71.1
		s-75.8-27.3-124.1-19.5c-12.1,1.3-24.3,3-36.4,5.1c-14.3,2.4-28.1,5.9-41.9,10c-2,0.6-3.6,0.4-4.7-1.4c-1.3-2.3,0.6-3.2,2.1-4.1
		c1.8-1.1,3.7-1.9,5.8-2.5c19.6-5.6,39.4-10.5,59.7-13.2c13.9-1.9,42-5.7,91.1,4.4c13.1,2,25.4,7,38.2,9.8
		c17.2,3.7,54,25.4,57.6,26.6c9.2,3,44.7,33,53,40.8c6,5.5,11.7,11.1,16.7,17.5c6,7.7,12.7,14.9,19.4,22.1
		C576.2,137.8,577.3,138.9,577.3,141.7z"/>
	<path class="st0" d="M419.3,403.7c-0.4-8.8,2.1-16.3,8.7-22.5c5.9-5.5,17.6-5.7,23.7-0.4c16.8,10.7,17.9,31.5,4.7,43.2
		c-12.1,8.2-23.4,6.8-31.6-1.4C421.4,419.2,418.9,410.9,419.3,403.7z"/>
	<path class="st0" d="M260.7,112.1c0.2-11.8,7.2-19.2,18.2-19.2c11.7,0,18.5,5.8,17.9,15.5c-0.6,10.4-11.7,22.3-20.7,21.6
		C268.6,129.2,259.5,121.2,260.7,112.1z"/>
	<path class="st0" d="M619.9,332.7c8.5,2.5,8.7,2.6,6.9,10c-3.4,14.2-21.8,77.7-25.5,78.3c-3.3,0.6-7.1,0-9-2.7c-2-3-2-7.1,0.4-10.2
		C598.5,400.9,618.1,337.1,619.9,332.7z"/>
	<path class="st0" d="M535.5,174.4c6.4,7.1,13.1,17.3,15.3,24.1"/>
</g>
</svg>
